# xmcd CD database file
# Copyright (C) 1995-1998 Ti Kan
#
# Track frame offsets:
#	150
#	15949
#	34287
#	49112
#	64233
#	75613
#	90524
#	106029
#	121238
#	137412
#	150554
#	164555
#
# Disc length: 2398 seconds
#
# Revision: 1
# Processed by: cddbd v1.4PL0 Copyright (c) Steve Scherf et al.
# Submitted via: CDex 1.30
#
DISCID=89095c0c
DTITLE=Garotos de Ouro - Interpretam Jorginho Tchamamecero
DYEAR=2001
DGENRE=Country
TTITLE0=Me bate nega véia
TTITLE1=Chefão da Mulherada
TTITLE2=Fandango em Jaraguá
TTITLE3=Coração Iludido
TTITLE4=O bicho vai pegar
TTITLE5=Destino de Campeiro
TTITLE6=Pra te amar
TTITLE7=Saudades da morena
TTITLE8=Suco suco
TTITLE9=Por você
TTITLE10=Salva meu coração
TTITLE11=Cutuca Gaiteiro
EXTD=\n\nYEAR: 2001  ID3G:   2
EXTT0=
EXTT1=
EXTT2=
EXTT3=
EXTT4=
EXTT5=
EXTT6=
EXTT7=
EXTT8=
EXTT9=
EXTT10=
EXTT11=
PLAYORDER=
